<svg id="Layer_1" data-name="Layer 1" xmlns="http://www.w3.org/2000/svg" viewBox="0 0 64 64"><defs><style>.cls-1,.cls-2,.cls-3{fill:none;stroke-miterlimit:10;stroke-width:2px;}.cls-1,.cls-2{stroke:#333;}.cls-1{stroke-linecap:round;}.cls-3{stroke:#f60;}</style></defs><title>WS_IconArtboard 1</title><path class="cls-1" d="M53,25l-3.1-6.69A8,8,0,0,0,42.36,13H21.64a8,8,0,0,0-7.53,5.31L11,25,6.75,31A4,4,0,0,0,6,33.28V42a4,4,0,0,0,4,4H54a4,4,0,0,0,4-4V33.28A4,4,0,0,0,57.25,31Z"/><path class="cls-1" d="M6,42v7a2,2,0,0,0,2,2h8a2,2,0,0,0,2-2V46l2.91-2.91a2,2,0,0,1,1.41-.59H42.17a2,2,0,0,1,1.41.59l2.66,2.66"/><path class="cls-1" d="M46,46v3a2,2,0,0,0,2,2h8a2,2,0,0,0,2-2V42"/><path class="cls-2" d="M3.84,25.14l5,.67a1,1,0,0,0,1.16-1V23a1,1,0,0,0-1-1H4a1,1,0,0,0-1,1v1.15A1,1,0,0,0,3.84,25.14Z"/><path class="cls-2" d="M60.16,25.14l-5,.67a1,1,0,0,1-1.16-1V23a1,1,0,0,1,1-1h5a1,1,0,0,1,1,1v1.15A1,1,0,0,1,60.16,25.14Z"/><path class="cls-3" d="M17,38H11a1,1,0,0,1-1-1V34.18a1,1,0,0,1,1.16-1l6,1.67a1,1,0,0,1,.84,1V37A1,1,0,0,1,17,38Z"/><path class="cls-3" d="M47,38h6a1,1,0,0,0,1-1V34.18a1,1,0,0,0-1.16-1l-6,1.67a1,1,0,0,0-.84,1V37A1,1,0,0,0,47,38Z"/><polyline class="cls-2" points="11 25 18 26 46.01 26.2 53 25"/></svg>