<svg id="Layer_1" data-name="Layer 1" xmlns="http://www.w3.org/2000/svg" xmlns:xlink="http://www.w3.org/1999/xlink" viewBox="0 0 64 64"><defs><style>.cls-1{fill:url(#linear-gradient);}.cls-2{fill:url(#linear-gradient-2);}</style><linearGradient id="linear-gradient" x1="33" y1="40" x2="33" y2="24" gradientUnits="userSpaceOnUse"><stop offset="0" stop-color="#11998e"/><stop offset="1" stop-color="#38ef7d"/></linearGradient><linearGradient id="linear-gradient-2" x1="32" y1="54" x2="32" y2="10" xlink:href="#linear-gradient"/></defs><title>WS_IconArtboard 6</title><polygon class="cls-1" points="26 40 40 32 26 24 26 40"/><path class="cls-2" d="M48,10H16A12,12,0,0,0,4,22V42A12,12,0,0,0,16,54H48A12,12,0,0,0,60,42V22A12,12,0,0,0,48,10Zm8,32a8,8,0,0,1-8,8H16a8,8,0,0,1-8-8V22a8,8,0,0,1,8-8H48a8,8,0,0,1,8,8Z"/></svg>