<svg id="Layer_1" data-name="Layer 1" xmlns="http://www.w3.org/2000/svg" xmlns:xlink="http://www.w3.org/1999/xlink" viewBox="0 0 64 64"><defs><style>.cls-1{fill:url(#linear-gradient);}.cls-2{fill:url(#linear-gradient-2);}.cls-3{fill:url(#linear-gradient-3);}.cls-4{fill:url(#linear-gradient-4);}</style><linearGradient id="linear-gradient" x1="46.62" y1="30.14" x2="46.62" y2="12" gradientUnits="userSpaceOnUse"><stop offset="0" stop-color="#11998e"/><stop offset="1" stop-color="#38ef7d"/></linearGradient><linearGradient id="linear-gradient-2" x1="41.74" y1="25.66" x2="41.74" y2="16" xlink:href="#linear-gradient"/><linearGradient id="linear-gradient-3" x1="51.5" y1="34.63" x2="51.5" y2="8" xlink:href="#linear-gradient"/><linearGradient id="linear-gradient-4" x1="23.16" y1="56" x2="23.16" y2="8" xlink:href="#linear-gradient"/></defs><title>WS_IconArtboard 6 copy 2</title><path class="cls-1" d="M46.57,12.59a2,2,0,0,0-2.83,2.83,8,8,0,0,1,0,11.31,2,2,0,0,0,2.83,2.83A12,12,0,0,0,46.57,12.59Z"/><path class="cls-2" d="M42.57,16.59a2,2,0,0,0-2.83,2.83,2,2,0,0,1,0,2.83,2,2,0,0,0,2.83,2.83A6,6,0,0,0,42.57,16.59Z"/><path class="cls-3" d="M50.57,8.59a2,2,0,1,0-2.83,2.83,14,14,0,0,1,0,19.8A2,2,0,0,0,50.57,34,18,18,0,0,0,50.57,8.59Z"/><path class="cls-4" d="M36.15,17.86V18a10,10,0,0,0-10-10h-6a10,10,0,0,0-10,10v-.14l-2,28V46a10,10,0,0,0,10,10h10a10,10,0,0,0,10-10v-.14ZM28.16,52h-10a6,6,0,0,1-5.65-4H33.8A6,6,0,0,1,28.16,52ZM12.3,44l1.85-25.86V18a6,6,0,0,1,6-6h6a6,6,0,0,1,6,6v.14L34,44Z"/></svg>