<svg id="Layer_1" data-name="Layer 1" xmlns="http://www.w3.org/2000/svg" viewBox="0 0 64 64"><defs><style>.cls-1,.cls-3{fill:none;}.cls-1,.cls-2{stroke:#f60;}.cls-1,.cls-2,.cls-3{stroke-linecap:round;stroke-miterlimit:10;stroke-width:2px;}.cls-2{fill:#fff;}.cls-3{stroke:#333;}</style></defs><title>WS_IconArtboard 1 copy 4</title><polyline class="cls-1" points="41.87 15 36.87 20 31.87 20"/><polyline class="cls-1" points="41.87 48 36.87 43 31.87 43"/><polyline class="cls-1" points="50.87 38 45.87 33 31.87 33"/><circle class="cls-2" cx="41.87" cy="15" r="2"/><circle class="cls-2" cx="41.87" cy="48" r="2"/><circle class="cls-2" cx="50.87" cy="38" r="2"/><line class="cls-1" x1="47.87" y1="26" x2="31.87" y2="26"/><circle class="cls-2" cx="47.87" cy="26" r="2"/><line class="cls-2" x1="40.87" y1="38" x2="32.87" y2="38"/><circle class="cls-2" cx="40.87" cy="38" r="2"/><path class="cls-3" d="M31.87,49.25a5.68,5.68,0,1,1-11.37,0,4.69,4.69,0,0,1-1.71.32,4.46,4.46,0,0,1-4.55-4.37,4.21,4.21,0,0,1,.37-1.73A5.75,5.75,0,0,1,14.82,32a5.75,5.75,0,0,1-.19-11.49,4.21,4.21,0,0,1-.37-1.73,4.46,4.46,0,0,1,4.55-4.37,4.69,4.69,0,0,1,1.71.32,5.68,5.68,0,1,1,11.37,0v34.5A5.72,5.72,0,0,1,26.18,55"/><path class="cls-3" d="M20.5,21.65a5.75,5.75,0,0,1,3.91-5.46"/><path class="cls-3" d="M26.18,37.75a5.75,5.75,0,0,1,0-11.5"/><path class="cls-3" d="M21.64,18.2a5.77,5.77,0,0,1-1.14-3.45"/><path class="cls-3" d="M21.64,45.8a5.77,5.77,0,0,0-1.14,3.45"/><line class="cls-3" x1="14.82" y1="32" x2="20.5" y2="32"/><path class="cls-3" d="M20.5,42.35a5.75,5.75,0,0,0,3.91,5.46"/></svg>