<svg id="Layer_1" data-name="Layer 1" xmlns="http://www.w3.org/2000/svg" xmlns:xlink="http://www.w3.org/1999/xlink" viewBox="0 0 64 64"><defs><style>.cls-1{fill:url(#linear-gradient);}</style><linearGradient id="linear-gradient" x1="32" y1="54" x2="32" y2="10" gradientUnits="userSpaceOnUse"><stop offset="0" stop-color="#11998e"/><stop offset="1" stop-color="#38ef7d"/></linearGradient></defs><title>WS_IconArtboard 6 copy</title><path class="cls-1" d="M56,18H54V12a2,2,0,0,0-4,0v6H46V12a2,2,0,0,0-4,0v6H38v6a10,10,0,0,0,8,9.8V44a6,6,0,0,1-6,6H36a6,6,0,0,1-6-6V20A10,10,0,0,0,20,10H16A10,10,0,0,0,6,20V52a2,2,0,0,0,4,0V20a6,6,0,0,1,6-6h4a6,6,0,0,1,6,6V44A10,10,0,0,0,36,54h4A10,10,0,0,0,50,44V33.8A10,10,0,0,0,58,24V18Zm-2,6a6,6,0,0,1-12,0V22H54Z"/></svg>