<svg id="Layer_1" data-name="Layer 1" xmlns="http://www.w3.org/2000/svg" xmlns:xlink="http://www.w3.org/1999/xlink" viewBox="0 0 64 64"><defs><style>.cls-1{fill:url(#linear-gradient);}.cls-2{fill:url(#linear-gradient-2);}.cls-3{fill:url(#linear-gradient-3);}.cls-4{fill:url(#linear-gradient-4);}.cls-5{fill:url(#linear-gradient-5);}</style><linearGradient id="linear-gradient" x1="12" y1="38" x2="12" y2="26" gradientUnits="userSpaceOnUse"><stop offset="0" stop-color="#11998e"/><stop offset="1" stop-color="#38ef7d"/></linearGradient><linearGradient id="linear-gradient-2" x1="32" y1="54" x2="32" y2="10" xlink:href="#linear-gradient"/><linearGradient id="linear-gradient-3" x1="22" y1="46" x2="22" y2="18" xlink:href="#linear-gradient"/><linearGradient id="linear-gradient-4" x1="52" y1="42" x2="52" y2="22" xlink:href="#linear-gradient"/><linearGradient id="linear-gradient-5" x1="42" x2="42" xlink:href="#linear-gradient"/></defs><title>WS_IconArtboard 6 copy 3</title><path class="cls-1" d="M12,26a2,2,0,0,0-2,2v8a2,2,0,0,0,4,0V28A2,2,0,0,0,12,26Z"/><path class="cls-2" d="M32,10a2,2,0,0,0-2,2V52a2,2,0,0,0,4,0V12A2,2,0,0,0,32,10Z"/><path class="cls-3" d="M22,18a2,2,0,0,0-2,2V44a2,2,0,0,0,4,0V20A2,2,0,0,0,22,18Z"/><path class="cls-4" d="M52,22a2,2,0,0,0-2,2V40a2,2,0,0,0,4,0V24A2,2,0,0,0,52,22Z"/><path class="cls-5" d="M42,26a2,2,0,0,0-2,2v8a2,2,0,0,0,4,0V28A2,2,0,0,0,42,26Z"/></svg>