<svg id="Layer_1" data-name="Layer 1" xmlns="http://www.w3.org/2000/svg" viewBox="0 0 64 64"><defs><style>.cls-1{fill:#fff;}</style></defs><title>WS_IconArtboard 6 copy 4</title><path class="cls-1" d="M54.63,9.37A20.76,20.76,0,0,0,47.82,8.3,21.88,21.88,0,0,0,32,15l-7.08,7.08-5.9-2a3.48,3.48,0,0,0-3.58.85l-5.32,5.32a3.5,3.5,0,0,0,1.37,5.8l2.58.86-2.57,2.57,1.24,1.24-.84.42A3.5,3.5,0,0,0,11,42.8L21.2,53a3.51,3.51,0,0,0,2.48,1,3.45,3.45,0,0,0,.56,0,3.51,3.51,0,0,0,2.57-1.89l.42-.84,1.24,1.24L31,49.93l.86,2.58a3.48,3.48,0,0,0,2.52,2.3,3.56,3.56,0,0,0,.81.09,3.47,3.47,0,0,0,2.46-1L43,48.56A3.48,3.48,0,0,0,43.86,45l-2-5.9L49,32A22,22,0,0,0,54.63,9.37ZM12.43,29.26a.5.5,0,0,1-.2-.83l5.32-5.32a.5.5,0,0,1,.51-.12l4.48,1.49-6.11,6.11ZM24.12,50.77a.5.5,0,0,1-.8.13L13.1,40.68a.5.5,0,0,1,.13-.8L15,39,25,49ZM40.9,46.44l-5.32,5.32a.49.49,0,0,1-.47.13.49.49,0,0,1-.36-.33l-1.33-4,6.11-6.11L41,45.93A.5.5,0,0,1,40.9,46.44Zm6-16.56L28.46,48.26,15.74,35.54,34.12,17.15a18.84,18.84,0,0,1,13.7-5.85,19.78,19.78,0,0,1,4.39.49A19.08,19.08,0,0,1,46.85,29.88Z"/><path class="cls-1" d="M42.55,15a1.5,1.5,0,0,0-2.12,2.12l6.49,6.49A1.5,1.5,0,0,0,49,21.45Z"/><path class="cls-1" d="M36.95,21.05a6,6,0,1,0,4.24,1.76A6,6,0,0,0,36.95,21.05Zm2.12,8.12a3,3,0,1,1,.88-2.12A3,3,0,0,1,39.07,29.17Z"/><path class="cls-1" d="M15.38,48.62a1.5,1.5,0,0,0-2.12,0L9,52.86A1.5,1.5,0,1,0,11.14,55l4.24-4.24A1.5,1.5,0,0,0,15.38,48.62Z"/><path class="cls-1" d="M11.14,44.37a1.5,1.5,0,0,0-2.12,0L6.19,47.2a1.5,1.5,0,1,0,2.12,2.12l2.83-2.83A1.5,1.5,0,0,0,11.14,44.37Z"/><path class="cls-1" d="M17.5,52.86l-1.42,1.42a1.5,1.5,0,1,0,2.12,2.12L19.63,55a1.5,1.5,0,0,0-2.12-2.12Z"/></svg>