<svg id="Layer_1" data-name="Layer 1" xmlns="http://www.w3.org/2000/svg" viewBox="0 0 64 64"><defs><style>.cls-1,.cls-2{fill:none;stroke-miterlimit:10;stroke-width:2px;}.cls-1{stroke:#333;}.cls-2{stroke:#f60;}</style></defs><title>WS_IconArtboard 1 copy 2</title><path class="cls-1" d="M55,36V28H51.6a19.88,19.88,0,0,0-2.92-7l2.41-2.41-5.66-5.66L43,15.32a19.88,19.88,0,0,0-7-2.92V9H28v3.4a19.88,19.88,0,0,0-7,2.92l-2.41-2.41-5.66,5.66L15.32,21a19.88,19.88,0,0,0-2.92,7H9v8h3.4a19.88,19.88,0,0,0,2.92,7l-2.41,2.41,5.66,5.66L21,48.68a19.88,19.88,0,0,0,7,2.92V55h8V51.6a19.88,19.88,0,0,0,7-2.92l2.41,2.41,5.66-5.66L48.68,43a19.88,19.88,0,0,0,2.92-7Z"/><circle class="cls-2" cx="32" cy="32" r="12"/></svg>