<svg id="Layer_1" data-name="Layer 1" xmlns="http://www.w3.org/2000/svg" viewBox="0 0 64 64"><defs><style>.cls-1,.cls-2{fill:none;stroke-linecap:round;stroke-miterlimit:10;stroke-width:2px;}.cls-1{stroke:#f60;}.cls-2{stroke:#333;}</style></defs><title>WS_IconArtboard 1 copy 3</title><rect class="cls-1" x="21" y="21" width="22" height="22"/><rect class="cls-2" x="15" y="14.45" width="34" height="35.09"/><rect class="cls-2" x="20" y="49" height="7" transform="translate(40 105) rotate(180)"/><rect class="cls-2" x="28" y="49" height="7" transform="translate(56 105) rotate(180)"/><rect class="cls-2" x="36" y="49" height="7" transform="translate(72 105) rotate(180)"/><rect class="cls-2" x="44" y="49" height="7" transform="translate(88 105) rotate(180)"/><rect class="cls-2" x="20" y="8" height="7" transform="translate(40 23) rotate(180)"/><rect class="cls-2" x="28" y="8" height="7" transform="translate(56 23) rotate(180)"/><rect class="cls-2" x="36" y="8" height="7" transform="translate(72 23) rotate(180)"/><rect class="cls-2" x="44" y="8" height="7" transform="translate(88 23) rotate(180)"/><polygon class="cls-2" points="56 44 56 44 49 44 49 44 56 44"/><polygon class="cls-2" points="56 36 56 36 49 36 49 36 56 36"/><polygon class="cls-2" points="56 28 56 28 49 28 49 28 56 28"/><polygon class="cls-2" points="56 20 56 20 49 20 49 20 56 20"/><polygon class="cls-2" points="15 44 15 44 8 44 8 44 15 44"/><polygon class="cls-2" points="15 36 15 36 8 36 8 36 15 36"/><polygon class="cls-2" points="15 28 15 28 8 28 8 28 15 28"/><polygon class="cls-2" points="15 20 15 20 8 20 8 20 15 20"/></svg>